<?xml version="1.0" encoding="UTF-8" standalone="yes"?>
<!-- Created with sK1/UniConvertor (http://sk1project.org/) -->
<svg xmlns="http://www.w3.org/2000/svg" xmlns:xlink="http://www.w3.org/1999/xlink"
  width="180pt" height="180pt" viewBox="0 0 180 180"
  fill-rule="evenodd">
<g>
<path style="stroke:none; fill:#ffffff" d="M 0 0L 0 180L 180 180L 180 0L 124.8 0C 128.102 13.911 117.824 29.7344 106.4 36.745C 103.123 38.7562 95.312 43.2174 91.4544 40.7661C 87.3424 38.153 91.2832 28.8967 92.6984 25.6C 98.0248 13.1884 109.57 2.81281 123.2 0.800003C 113.654 -3.20538 96.7928 0 86.4 0L 0 0z"/>
<path style="stroke:none; fill:#e7e7e7" d="M 123.734 0.266663C 123.378 0.622223 124.222 0.577789 124.266 0.53334C 124.622 0.177795 123.778 0.222168 123.734 0.266663z"/>
<path style="stroke:none; fill:#afaeaf" d="M 120.534 1.06667C 120.178 1.42226 121.022 1.37776 121.066 1.33334C 121.422 0.977753 120.578 1.02219 120.534 1.06667z"/>
<path style="stroke:none; fill:#858385" d="M 90.4 40.8C 112.636 40.7386 124.798 21.2141 124.8 0.800003C 103.852 2.46941 90.4 21.0219 90.4 40.8z"/>
<path style="stroke:none; fill:#9b9b9b" d="M 124.8 0.800003L 124.8 4.8L 125.6 4.8C 125.53 3.22871 125.423 2.21524 124.8 0.800003M 115.734 2.66666C 115.378 3.02225 116.222 2.97775 116.266 2.93333C 116.622 2.57777 115.778 2.62221 115.734 2.66666z"/>
<path style="stroke:none; fill:#acaaac" d="M 124.8 4.8L 124.8 8L 125.6 8C 125.461 6.65186 125.346 6.00484 124.8 4.8z"/>
<path style="stroke:none; fill:#c7c6c7" d="M 108.8 5.60001L 109.6 6.39999L 108.8 5.60001z"/>
<path style="stroke:none; fill:#bcbbbc" d="M 106.4 7.2L 107.2 8L 106.4 7.2z"/>
<path style="stroke:none; fill:#9b9b9b" d="M 124 8.8L 124 12L 124.8 12C 124.661 10.6518 124.546 10.0048 124 8.8z"/>
<path style="stroke:none; fill:#d3d3d3" d="M 103.2 9.60001L 104 10.4L 103.2 9.60001z"/>
<path style="stroke:none; fill:#c5c4c5" d="M 102.4 10.4L 103.2 11.2L 102.4 10.4z"/>
<path style="stroke:none; fill:#b8b7b8" d="M 101.6 11.2L 102.4 12L 101.6 11.2M 100.8 12L 101.6 12.8L 100.8 12z"/>
<path style="stroke:none; fill:#939293" d="M 123.2 12L 123.2 15.2L 124 15.2C 123.861 13.8518 123.746 13.2048 123.2 12z"/>
<path style="stroke:none; fill:#c5c4c5" d="M 100 12.8L 100.8 13.6L 100 12.8z"/>
<path style="stroke:none; fill:#c7c6c7" d="M 99.2 13.6L 100 14.4L 99.2 13.6z"/>
<path style="stroke:none; fill:#9f9f9f" d="M 122.4 15.2L 122.4 17.6L 123.2 17.6C 122.999 16.4387 122.948 16.1987 122.4 15.2z"/>
<path style="stroke:none; fill:#c5c4c5" d="M 95.2 19.2L 96 20L 95.2 19.2z"/>
<path style="stroke:none; fill:#b8b7b8" d="M 119.2 23.2L 120 24L 119.2 23.2z"/>
<path style="stroke:none; fill:#c7c6c7" d="M 118.4 24.8L 119.2 25.6L 118.4 24.8z"/>
<path style="stroke:none; fill:#bcbbbc" d="M 116 28L 116.8 28.8L 116 28z"/>
<path style="stroke:none; fill:#afaeaf" d="M 115.2 28.8L 116 29.6L 115.2 28.8M 114.4 29.6L 115.2 30.4L 114.4 29.6M 112 32L 112.8 32.8L 112 32z"/>
<path style="stroke:none; fill:#bcbbbc" d="M 111.2 32.8L 112 33.6L 111.2 32.8z"/>
<path style="stroke:none; fill:#cecece" d="M 110.4 33.6L 111.2 34.4L 110.4 33.6z"/>
<path style="stroke:none; fill:#bcbbbc" d="M 89.6 34.4L 89.6 40.8L 90.4 40.8C 90.3944 38.5316 90.4784 36.4902 89.6 34.4M 108 35.2L 108.8 36L 108 35.2M 105.6 36.8L 106.4 37.6L 105.6 36.8M 104 37.6L 104.8 38.4L 104 37.6z"/>
<path style="stroke:none; fill:#c5c4c5" d="M 102.4 38.4L 103.2 39.2L 102.4 38.4z"/>
<path style="stroke:none; fill:#acaaac" d="M 99.7336 39.4666C 99.3776 39.8222 100.222 39.7778 100.266 39.7334C 100.622 39.3778 99.7776 39.4222 99.7336 39.4666M 96.8 40L 96.8 40.8L 99.2 40.8C 98.2016 40.2522 97.9616 40.201 96.8 40z"/>
<path style="stroke:none; fill:#b8b7b8" d="M 90.4 40.8L 90.4 41.6L 94.4 41.6C 92.9848 40.9769 91.9712 40.8701 90.4 40.8z"/>
<path style="stroke:none; fill:#dcdcdc" d="M 94.9336 41.0666C 94.5776 41.4222 95.4224 41.3778 95.4664 41.3334C 95.8224 40.9778 94.9776 41.0222 94.9336 41.0666M 58.4 44L 58.4 44.8L 62.4 44.8C 60.9848 44.1769 59.9713 44.0701 58.4 44z"/>
<path style="stroke:none; fill:#b8b7b8" d="M 116.534 44.2666C 116.178 44.6222 117.022 44.5778 117.066 44.5334C 117.422 44.1778 116.578 44.2222 116.534 44.2666z"/>
<path style="stroke:none; fill:#939293" d="M 117.6 44L 117.6 44.8L 128.8 44.8C 125.426 43.3846 121.233 44 117.6 44z"/>
<path style="stroke:none; fill:#d3d3d3" d="M 129.334 44.2666C 128.978 44.6222 129.822 44.5778 129.866 44.5334C 130.222 44.1778 129.378 44.2222 129.334 44.2666z"/>
<path style="stroke:none; fill:#c5c4c5" d="M 53.3334 45.0666C 52.9778 45.4222 53.8222 45.3778 53.8666 45.3334C 54.2222 44.9778 53.3778 45.0222 53.3334 45.0666z"/>
<path style="stroke:none; fill:#858385" d="M 54.4 45.1512C 34.3757 48.3045 21.455 66.725 18.3358 85.6C 13.5217 114.732 26.1994 148.158 45.7364 169.597C 61.8974 187.332 77.6673 170.669 96.8 172.072C 107.949 172.89 116.255 180.238 128 178.137C 141.186 175.777 151.133 157.266 156.602 146.4C 158.338 142.95 162.475 136.916 161.082 132.883C 159.419 128.066 150.168 123.554 146.639 119.661C 139.886 112.21 137.563 100.126 138.537 90.4C 139.329 82.4816 143.403 75.2998 148.832 69.6C 150.949 67.378 156.998 63.551 156.198 59.9685C 155.252 55.7282 149.042 52.0515 145.6 49.9716C 136.006 44.174 121.105 42.9179 110.4 46.0111C 103.962 47.8716 96.4736 53.1632 89.6 52.4648C 77.0188 51.1866 68.0014 43.0094 54.4 45.1512z"/>
<path style="stroke:none; fill:#dcdcdc" d="M 68.5334 45.0666C 68.1778 45.4222 69.0222 45.3778 69.0666 45.3334C 69.4222 44.9778 68.5778 45.0222 68.5334 45.0666z"/>
<path style="stroke:none; fill:#acaaac" d="M 113.334 45.0666C 112.978 45.4222 113.822 45.3778 113.866 45.3334C 114.222 44.9778 113.378 45.0222 113.334 45.0666z"/>
<path style="stroke:none; fill:#9f9f9f" d="M 131.2 44.8L 131.2 45.6L 133.6 45.6C 132.602 45.0522 132.362 45.001 131.2 44.8M 134.4 45.6L 134.4 46.4L 136.8 46.4C 135.802 45.8522 135.562 45.801 134.4 45.6z"/>
<path style="stroke:none; fill:#9b9b9b" d="M 72 46.4L 72 47.2L 74.4 47.2C 73.4014 46.6522 73.1612 46.601 72 46.4z"/>
<path style="stroke:none; fill:#b8b7b8" d="M 138.134 46.6666C 137.778 47.0222 138.622 46.9778 138.666 46.9334C 139.022 46.5778 138.178 46.6222 138.134 46.6666z"/>
<path style="stroke:none; fill:#d3d3d3" d="M 45.6 47.2L 46.4 48L 45.6 47.2z"/>
<path style="stroke:none; fill:#9f9f9f" d="M 106.134 47.4666C 105.778 47.8222 106.622 47.7778 106.666 47.7334C 107.022 47.3778 106.178 47.4222 106.134 47.4666z"/>
<path style="stroke:none; fill:#b8b7b8" d="M 77.6 48L 78.4 48.8L 77.6 48z"/>
<path style="stroke:none; fill:#c7c6c7" d="M 42.4 48.8L 43.2 49.6L 42.4 48.8z"/>
<path style="stroke:none; fill:#c5c4c5" d="M 80 48.8L 80.8 49.6L 80 48.8z"/>
<path style="stroke:none; fill:#acaaac" d="M 99.7336 49.8666C 99.3776 50.2222 100.222 50.1778 100.266 50.1334C 100.622 49.7778 99.7776 49.8222 99.7336 49.8666z"/>
<path style="stroke:none; fill:#afaeaf" d="M 84 50.4L 84.8 51.2L 84 50.4z"/>
<path style="stroke:none; fill:#c5c4c5" d="M 146.4 50.4L 147.2 51.2L 146.4 50.4z"/>
<path style="stroke:none; fill:#afaeaf" d="M 86.1336 51.4666C 85.7776 51.8222 86.6224 51.7778 86.6664 51.7334C 87.0224 51.3778 86.1776 51.4222 86.1336 51.4666M 94.9336 51.4666C 94.5776 51.8222 95.4224 51.7778 95.4664 51.7334C 95.8224 51.3778 94.9776 51.4222 94.9336 51.4666z"/>
<path style="stroke:none; fill:#acaaac" d="M 88 52L 88 52.8L 92.8 52.8C 91.1584 52.1006 89.8024 52.0378 88 52z"/>
<path style="stroke:none; fill:#cecece" d="M 148.8 52L 149.6 52.8L 148.8 52z"/>
<path style="stroke:none; fill:#b8b7b8" d="M 149.6 52.8L 150.4 53.6L 149.6 52.8z"/>
<path style="stroke:none; fill:#c5c4c5" d="M 34.4 54.4L 35.2 55.2L 34.4 54.4z"/>
<path style="stroke:none; fill:#b8b7b8" d="M 30.4 58.4L 31.2 59.2L 30.4 58.4z"/>
<path style="stroke:none; fill:#c5c4c5" d="M 29.6 59.2L 30.4 60L 29.6 59.2z"/>
<path style="stroke:none; fill:#b8b7b8" d="M 157.066 60.5334C 157.022 60.5778 156.978 61.4222 157.334 61.0666C 157.378 61.0222 157.422 60.1778 157.066 60.5334z"/>
<path style="stroke:none; fill:#c5c4c5" d="M 26.4 63.2L 27.2 64L 26.4 63.2z"/>
<path style="stroke:none; fill:#b8b7b8" d="M 154.4 63.2L 155.2 64L 154.4 63.2z"/>
<path style="stroke:none; fill:#cecece" d="M 153.6 64L 154.4 64.8L 153.6 64z"/>
<path style="stroke:none; fill:#d3d3d3" d="M 24.8 65.6L 25.6 66.4L 24.8 65.6z"/>
<path style="stroke:none; fill:#bcbbbc" d="M 24 67.2L 24.8 68L 24 67.2z"/>
<path style="stroke:none; fill:#c7c6c7" d="M 147.2 70.4L 148 71.2L 147.2 70.4z"/>
<path style="stroke:none; fill:#bcbbbc" d="M 146.4 71.2L 147.2 72L 146.4 71.2z"/>
<path style="stroke:none; fill:#c5c4c5" d="M 21.6 72L 22.4 72.8L 21.6 72z"/>
<path style="stroke:none; fill:#afaeaf" d="M 145.6 72L 146.4 72.8L 145.6 72z"/>
<path style="stroke:none; fill:#d3d3d3" d="M 144.8 73.6L 145.6 74.4L 144.8 73.6z"/>
<path style="stroke:none; fill:#b8b7b8" d="M 144 74.4L 144.8 75.2L 144 74.4z"/>
<path style="stroke:none; fill:#d3d3d3" d="M 20 76L 20.8 76.8L 20 76z"/>
<path style="stroke:none; fill:#cecece" d="M 143.2 76L 144 76.8L 143.2 76z"/>
<path style="stroke:none; fill:#c7c6c7" d="M 141.866 78.9334C 141.822 78.9778 141.778 79.8222 142.134 79.4666C 142.178 79.4222 142.222 78.5778 141.866 78.9334z"/>
<path style="stroke:none; fill:#c5c4c5" d="M 141.066 80.5336C 141.022 80.5776 140.978 81.4224 141.334 81.0664C 141.378 81.0224 141.422 80.1776 141.066 80.5336M 18.6666 82.1336C 18.6222 82.1776 18.5778 83.0224 18.9334 82.6664C 18.9778 82.6224 19.0222 81.7776 18.6666 82.1336z"/>
<path style="stroke:none; fill:#afaeaf" d="M 140 81.6L 140 84L 140.8 84C 140.599 82.8384 140.548 82.5984 140 81.6z"/>
<path style="stroke:none; fill:#acaaac" d="M 139.2 84L 139.2 86.4L 140 86.4C 139.799 85.2384 139.748 84.9984 139.2 84z"/>
<path style="stroke:none; fill:#afaeaf" d="M 17.8666 86.9336C 17.8222 86.9776 17.7778 87.8224 18.1334 87.4664C 18.1778 87.4224 18.2222 86.5776 17.8666 86.9336M 138.4 88L 138.4 93.6L 139.2 93.6C 139.185 91.5656 139.188 89.8656 138.4 88z"/>
<path style="stroke:none; fill:#c5c4c5" d="M 138.4 93.6L 138.4 97.6L 139.2 97.6C 139.13 96.0288 139.023 95.0152 138.4 93.6z"/>
<path style="stroke:none; fill:#a3a2a3" d="M 138.4 97.6L 138.4 101.6L 139.2 101.6C 139.13 100.029 139.023 99.0152 138.4 97.6z"/>
<path style="stroke:none; fill:#afaeaf" d="M 139.466 104.534C 139.422 104.578 139.378 105.422 139.734 105.066C 139.778 105.022 139.822 104.178 139.466 104.534z"/>
<path style="stroke:none; fill:#c5c4c5" d="M 17.6 107.2L 17.6 109.6L 18.4 109.6C 18.199 108.438 18.1478 108.198 17.6 107.2z"/>
<path style="stroke:none; fill:#acaaac" d="M 140.266 107.734C 140.222 107.778 140.178 108.622 140.534 108.266C 140.578 108.222 140.622 107.378 140.266 107.734z"/>
<path style="stroke:none; fill:#a3a2a3" d="M 141.066 110.134C 141.022 110.178 140.978 111.022 141.334 110.666C 141.378 110.622 141.422 109.778 141.066 110.134z"/>
<path style="stroke:none; fill:#dcdcdc" d="M 18.6666 113.334C 18.6222 113.378 18.5778 114.222 18.9334 113.866C 18.9778 113.822 19.0222 112.978 18.6666 113.334z"/>
<path style="stroke:none; fill:#939293" d="M 19.2 114.4L 19.2 117.6L 20 117.6C 19.8607 116.252 19.7464 115.605 19.2 114.4M 144.8 117.6C 145.347 118.864 145.444 119.022 146.4 120C 145.853 118.736 145.756 118.578 144.8 117.6z"/>
<path style="stroke:none; fill:#a3a2a3" d="M 20 119.2L 20 121.6L 20.8 121.6C 20.599 120.438 20.5478 120.198 20 119.2z"/>
<path style="stroke:none; fill:#d3d3d3" d="M 146.4 119.2L 147.2 120L 146.4 119.2z"/>
<path style="stroke:none; fill:#cecece" d="M 21.0666 123.734C 21.0222 123.778 20.9778 124.622 21.3334 124.266C 21.3778 124.222 21.4222 123.378 21.0666 123.734z"/>
<path style="stroke:none; fill:#bcbbbc" d="M 154.4 127.2L 155.2 128L 154.4 127.2z"/>
<path style="stroke:none; fill:#b8b7b8" d="M 22.4 128.8L 23.2 129.6L 22.4 128.8z"/>
<path style="stroke:none; fill:#cecece" d="M 156.8 128.8L 157.6 129.6L 156.8 128.8z"/>
<path style="stroke:none; fill:#afaeaf" d="M 23.4666 130.934C 23.4222 130.978 23.3778 131.822 23.7334 131.466C 23.7778 131.422 23.8222 130.578 23.4666 130.934z"/>
<path style="stroke:none; fill:#c5c4c5" d="M 160.8 131.2L 161.6 132L 160.8 131.2z"/>
<path style="stroke:none; fill:#a3a2a3" d="M 161.6 132L 161.6 134.4L 162.4 134.4C 162.199 133.238 162.148 132.998 161.6 132z"/>
<path style="stroke:none; fill:#c5c4c5" d="M 24 133.6L 24.8 134.4L 24 133.6M 25.6 137.6L 26.4 138.4L 25.6 137.6z"/>
<path style="stroke:none; fill:#afaeaf" d="M 160 137.6L 160.8 138.4L 160 137.6z"/>
<path style="stroke:none; fill:#bcbbbc" d="M 158.4 141.6L 159.2 142.4L 158.4 141.6M 157.6 143.2L 158.4 144L 157.6 143.2z"/>
<path style="stroke:none; fill:#b8b7b8" d="M 156.8 144.8L 157.6 145.6L 156.8 144.8M 156 146.4L 156.8 147.2L 156 146.4z"/>
<path style="stroke:none; fill:#c5c4c5" d="M 155.2 148L 156 148.8L 155.2 148z"/>
<path style="stroke:none; fill:#b8b7b8" d="M 32 150.4L 32.8 151.2L 32 150.4M 152.8 152L 153.6 152.8L 152.8 152z"/>
<path style="stroke:none; fill:#c7c6c7" d="M 34.4 154.4L 35.2 155.2L 34.4 154.4z"/>
<path style="stroke:none; fill:#afaeaf" d="M 151.2 154.4L 152 155.2L 151.2 154.4z"/>
<path style="stroke:none; fill:#bcbbbc" d="M 150.4 156L 151.2 156.8L 150.4 156M 36 156.8L 36.8 157.6L 36 156.8z"/>
<path style="stroke:none; fill:#c5c4c5" d="M 148.8 158.4L 149.6 159.2L 148.8 158.4M 37.6 159.2L 38.4 160L 37.6 159.2z"/>
<path style="stroke:none; fill:#bcbbbc" d="M 147.2 160.8L 148 161.6L 147.2 160.8M 40 162.4L 40.8 163.2L 40 162.4z"/>
<path style="stroke:none; fill:#b8b7b8" d="M 144.8 164L 145.6 164.8L 144.8 164z"/>
<path style="stroke:none; fill:#c7c6c7" d="M 42.4 165.6L 43.2 166.4L 42.4 165.6z"/>
<path style="stroke:none; fill:#bcbbbc" d="M 43.2 166.4L 44 167.2L 43.2 166.4z"/>
<path style="stroke:none; fill:#c7c6c7" d="M 142.4 167.2L 143.2 168L 142.4 167.2z"/>
<path style="stroke:none; fill:#bcbbbc" d="M 141.6 168L 142.4 168.8L 141.6 168z"/>
<path style="stroke:none; fill:#b8b7b8" d="M 140.8 168.8L 141.6 169.6L 140.8 168.8z"/>
<path style="stroke:none; fill:#afaeaf" d="M 140 169.6L 140.8 170.4L 140 169.6M 139.2 170.4L 140 171.2L 139.2 170.4M 138.4 171.2L 139.2 172L 138.4 171.2z"/>
<path style="stroke:none; fill:#b8b7b8" d="M 86.4 172L 86.4 172.8L 89.6 172.8C 88.3952 172.254 87.748 172.139 86.4 172z"/>
<path style="stroke:none; fill:#d3d3d3" d="M 89.6 172L 89.6 172.8L 97.6 172.8C 95.0696 171.738 92.3312 172 89.6 172z"/>
<path style="stroke:none; fill:#acaaac" d="M 97.6 172L 97.6 172.8L 100 172.8C 99.0016 172.252 98.7616 172.201 97.6 172z"/>
<path style="stroke:none; fill:#b8b7b8" d="M 137.6 172L 138.4 172.8L 137.6 172z"/>
<path style="stroke:none; fill:#afaeaf" d="M 83.7336 173.066C 83.3776 173.422 84.2224 173.378 84.2664 173.334C 84.6224 172.978 83.7776 173.022 83.7336 173.066z"/>
<path style="stroke:none; fill:#a3a2a3" d="M 102.134 173.066C 101.778 173.422 102.622 173.378 102.666 173.334C 103.022 172.978 102.178 173.022 102.134 173.066z"/>
<path style="stroke:none; fill:#bcbbbc" d="M 136.8 172.8L 137.6 173.6L 136.8 172.8z"/>
<path style="stroke:none; fill:#b8b7b8" d="M 81.3336 173.866C 80.9776 174.222 81.8224 174.178 81.8664 174.134C 82.2224 173.778 81.3776 173.822 81.3336 173.866z"/>
<path style="stroke:none; fill:#a3a2a3" d="M 104.534 173.866C 104.178 174.222 105.022 174.178 105.066 174.134C 105.422 173.778 104.578 173.822 104.534 173.866z"/>
<path style="stroke:none; fill:#c7c6c7" d="M 136 173.6L 136.8 174.4L 136 173.6z"/>
<path style="stroke:none; fill:#cecece" d="M 51.2 174.4L 52 175.2L 51.2 174.4z"/>
<path style="stroke:none; fill:#b8b7b8" d="M 78.9334 174.666C 78.5778 175.022 79.4222 174.978 79.4666 174.934C 79.8222 174.578 78.9778 174.622 78.9334 174.666z"/>
<path style="stroke:none; fill:#9f9f9f" d="M 106.934 174.666C 106.578 175.022 107.422 174.978 107.466 174.934C 107.822 174.578 106.978 174.622 106.934 174.666z"/>
<path style="stroke:none; fill:#afaeaf" d="M 108.534 175.466C 108.178 175.822 109.022 175.778 109.066 175.734C 109.422 175.378 108.578 175.422 108.534 175.466z"/>
<path style="stroke:none; fill:#bcbbbc" d="M 133.6 175.2L 134.4 176L 133.6 175.2z"/>
<path style="stroke:none; fill:#9b9b9b" d="M 54.1334 176.266C 53.7778 176.622 54.6222 176.578 54.6666 176.534C 55.0222 176.178 54.1778 176.222 54.1334 176.266z"/>
<path style="stroke:none; fill:#b8b7b8" d="M 74.9334 176.266C 74.5778 176.622 75.4222 176.578 75.4666 176.534C 75.8222 176.178 74.9778 176.222 74.9334 176.266z"/>
<path style="stroke:none; fill:#acaaac" d="M 110.934 176.266C 110.578 176.622 111.422 176.578 111.466 176.534C 111.822 176.178 110.978 176.222 110.934 176.266M 72.5334 177.066C 72.1778 177.422 73.0222 177.378 73.0666 177.334C 73.4222 176.978 72.5778 177.022 72.5334 177.066z"/>
<path style="stroke:none; fill:#cecece" d="M 70.9334 177.866C 70.5778 178.222 71.4222 178.178 71.4666 178.134C 71.8222 177.778 70.9778 177.822 70.9334 177.866z"/>
<path style="stroke:none; fill:#e7e7e7" d="M 129.334 177.866C 128.978 178.222 129.822 178.178 129.866 178.134C 130.222 177.778 129.378 177.822 129.334 177.866z"/>
<path style="stroke:none; fill:#9b9b9b" d="M 58.4 178.4L 58.4 179.2L 68.8 179.2C 65.633 177.871 61.8107 178.4 58.4 178.4z"/>
<path style="stroke:none; fill:#9f9f9f" d="M 117.6 178.4L 117.6 179.2L 126.4 179.2C 123.654 178.048 120.56 178.4 117.6 178.4z"/>
</g>
</svg>